<?xml version="1.0" encoding="UTF-8" standalone="no"?>
<svg
   xmlns:dc="http://purl.org/dc/elements/1.1/"
   xmlns:cc="http://creativecommons.org/ns#"
   xmlns:rdf="http://www.w3.org/1999/02/22-rdf-syntax-ns#"
   xmlns:svg="http://www.w3.org/2000/svg"
   xmlns="http://www.w3.org/2000/svg"
   xmlns:sodipodi="http://sodipodi.sourceforge.net/DTD/sodipodi-0.dtd"
   xmlns:inkscape="http://www.inkscape.org/namespaces/inkscape"
   viewBox="0 0 500 800"
   height="800"
   width="500"
   xml:space="preserve"
   version="1.1"
   id="svg2"
   inkscape:version="0.48.4 r9939"
   sodipodi:docname="figura46.pdf"><sodipodi:namedview
     pagecolor="#ffffff"
     bordercolor="#666666"
     borderopacity="1"
     objecttolerance="10"
     gridtolerance="10"
     guidetolerance="10"
     inkscape:pageopacity="0"
     inkscape:pageshadow="2"
     inkscape:window-width="1920"
     inkscape:window-height="1003"
     id="namedview1458"
     showgrid="false"
     inkscape:zoom="2.5284424"
     inkscape:cx="50.424799"
     inkscape:cy="689.37443"
     inkscape:window-x="-9"
     inkscape:window-y="-9"
     inkscape:window-maximized="1"
     inkscape:current-layer="svg2" /><metadata
     id="metadata8"><rdf:RDF><cc:Work
         rdf:about=""><dc:format>image/svg+xml</dc:format><dc:type
           rdf:resource="http://purl.org/dc/dcmitype/StillImage" /><dc:title></dc:title></cc:Work></rdf:RDF></metadata><defs
     id="defs6"><clipPath
       id="clipPath536"
       clipPathUnits="userSpaceOnUse"><path
         id="path538"
         d="m 320,235 0,0 0,0.8 0.2,0.7 0.3,0.8 0.4,0.6 0.5,0.6 0.6,0.5 0.6,0.4 0.8,0.3 0.7,0.2 0.9,0.1 0,0 150,0 0,0 0.8,-0.1 0.7,-0.2 0.8,-0.3 0.6,-0.4 0.6,-0.5 0.5,-0.6 0.4,-0.6 0.3,-0.8 0.2,-0.7 0.1,-0.8 0,0 0,-70 0,0 -0.1,-0.9 -0.2,-0.7 -0.3,-0.8 -0.4,-0.6 -0.5,-0.6 -0.6,-0.5 -0.6,-0.4 -0.8,-0.3 -0.7,-0.2 -0.8,0 0,0 -150,0 0,0 -0.9,0 -0.7,0.2 -0.8,0.3 -0.6,0.4 -0.6,0.5 -0.5,0.6 -0.4,0.6 -0.3,0.8 -0.2,0.7 0,0.9 0,0 0,70 m 240,0 0,0 0,0.8 0.2,0.7 0.3,0.8 0.4,0.6 0.5,0.6 0.6,0.5 0.6,0.4 0.8,0.3 0.7,0.2 0.9,0.1 0,0 150,0 0,0 0.8,-0.1 0.7,-0.2 0.8,-0.3 0.6,-0.4 0.6,-0.5 0.5,-0.6 0.4,-0.6 0.3,-0.8 0.2,-0.7 0.1,-0.8 0,0 0,-70 0,0 -0.1,-0.9 -0.2,-0.7 -0.3,-0.8 -0.4,-0.6 -0.5,-0.6 -0.6,-0.5 -0.6,-0.4 -0.8,-0.3 -0.7,-0.2 -0.8,0 0,0 -150,0 0,0 -0.9,0 -0.7,0.2 -0.8,0.3 -0.6,0.4 -0.6,0.5 -0.5,0.6 -0.4,0.6 -0.3,0.8 -0.2,0.7 0,0.9 0,0 0,70 M 0,0 1360,0 1360,1760 0,1760 0,0 z"
         inkscape:connector-curvature="0" /></clipPath><clipPath
       id="clipPath554"
       clipPathUnits="userSpaceOnUse"><path
         id="path556"
         d="m 320,235 0,0 0,0.8 0.2,0.7 0.3,0.8 0.4,0.6 0.5,0.6 0.6,0.5 0.6,0.4 0.8,0.3 0.7,0.2 0.9,0.1 0,0 150,0 0,0 0.8,-0.1 0.7,-0.2 0.8,-0.3 0.6,-0.4 0.6,-0.5 0.5,-0.6 0.4,-0.6 0.3,-0.8 0.2,-0.7 0.1,-0.8 0,0 0,-70 0,0 -0.1,-0.9 -0.2,-0.7 -0.3,-0.8 -0.4,-0.6 -0.5,-0.6 -0.6,-0.5 -0.6,-0.4 -0.8,-0.3 -0.7,-0.2 -0.8,0 0,0 -150,0 0,0 -0.9,0 -0.7,0.2 -0.8,0.3 -0.6,0.4 -0.6,0.5 -0.5,0.6 -0.4,0.6 -0.3,0.8 -0.2,0.7 0,0.9 0,0 0,70 m 240,0 0,0 0,0.8 0.2,0.7 0.3,0.8 0.4,0.6 0.5,0.6 0.6,0.5 0.6,0.4 0.8,0.3 0.7,0.2 0.9,0.1 0,0 150,0 0,0 0.8,-0.1 0.7,-0.2 0.8,-0.3 0.6,-0.4 0.6,-0.5 0.5,-0.6 0.4,-0.6 0.3,-0.8 0.2,-0.7 0.1,-0.8 0,0 0,-70 0,0 -0.1,-0.9 -0.2,-0.7 -0.3,-0.8 -0.4,-0.6 -0.5,-0.6 -0.6,-0.5 -0.6,-0.4 -0.8,-0.3 -0.7,-0.2 -0.8,0 0,0 -150,0 0,0 -0.9,0 -0.7,0.2 -0.8,0.3 -0.6,0.4 -0.6,0.5 -0.5,0.6 -0.4,0.6 -0.3,0.8 -0.2,0.7 0,0.9 0,0 0,70 M 0,0 1360,0 1360,1760 0,1760 0,0 z"
         inkscape:connector-curvature="0" /></clipPath><clipPath
       id="clipPath580"
       clipPathUnits="userSpaceOnUse"><path
         id="path582"
         d="m 800,235 0,0 0,0.8 0.2,0.7 0.3,0.8 0.4,0.6 0.5,0.6 0.6,0.5 0.6,0.4 0.8,0.3 0.7,0.2 0.9,0.1 0,0 150,0 0,0 0.8,-0.1 0.7,-0.2 0.8,-0.3 0.6,-0.4 0.6,-0.5 0.5,-0.6 0.4,-0.6 0.3,-0.8 0.2,-0.7 0.1,-0.8 0,0 0,-70 0,0 -0.1,-0.9 -0.2,-0.7 -0.3,-0.8 -0.4,-0.6 -0.5,-0.6 -0.6,-0.5 -0.6,-0.4 -0.8,-0.3 -0.7,-0.2 -0.8,0 0,0 -150,0 0,0 -0.9,0 -0.7,0.2 -0.8,0.3 -0.6,0.4 -0.6,0.5 -0.5,0.6 -0.4,0.6 -0.3,0.8 -0.2,0.7 0,0.9 0,0 0,70 m -240,0 0,0 0,0.8 0.2,0.7 0.3,0.8 0.4,0.6 0.5,0.6 0.6,0.5 0.6,0.4 0.8,0.3 0.7,0.2 0.9,0.1 0,0 150,0 0,0 0.8,-0.1 0.7,-0.2 0.8,-0.3 0.6,-0.4 0.6,-0.5 0.5,-0.6 0.4,-0.6 0.3,-0.8 0.2,-0.7 0.1,-0.8 0,0 0,-70 0,0 -0.1,-0.9 -0.2,-0.7 -0.3,-0.8 -0.4,-0.6 -0.5,-0.6 -0.6,-0.5 -0.6,-0.4 -0.8,-0.3 -0.7,-0.2 -0.8,0 0,0 -150,0 0,0 -0.9,0 -0.7,0.2 -0.8,0.3 -0.6,0.4 -0.6,0.5 -0.5,0.6 -0.4,0.6 -0.3,0.8 -0.2,0.7 0,0.9 0,0 0,70 M 0,0 1360,0 1360,1760 0,1760 0,0 z"
         inkscape:connector-curvature="0" /></clipPath><clipPath
       id="clipPath598"
       clipPathUnits="userSpaceOnUse"><path
         id="path600"
         d="m 800,235 0,0 0,0.8 0.2,0.7 0.3,0.8 0.4,0.6 0.5,0.6 0.6,0.5 0.6,0.4 0.8,0.3 0.7,0.2 0.9,0.1 0,0 150,0 0,0 0.8,-0.1 0.7,-0.2 0.8,-0.3 0.6,-0.4 0.6,-0.5 0.5,-0.6 0.4,-0.6 0.3,-0.8 0.2,-0.7 0.1,-0.8 0,0 0,-70 0,0 -0.1,-0.9 -0.2,-0.7 -0.3,-0.8 -0.4,-0.6 -0.5,-0.6 -0.6,-0.5 -0.6,-0.4 -0.8,-0.3 -0.7,-0.2 -0.8,0 0,0 -150,0 0,0 -0.9,0 -0.7,0.2 -0.8,0.3 -0.6,0.4 -0.6,0.5 -0.5,0.6 -0.4,0.6 -0.3,0.8 -0.2,0.7 0,0.9 0,0 0,70 m -240,0 0,0 0,0.8 0.2,0.7 0.3,0.8 0.4,0.6 0.5,0.6 0.6,0.5 0.6,0.4 0.8,0.3 0.7,0.2 0.9,0.1 0,0 150,0 0,0 0.8,-0.1 0.7,-0.2 0.8,-0.3 0.6,-0.4 0.6,-0.5 0.5,-0.6 0.4,-0.6 0.3,-0.8 0.2,-0.7 0.1,-0.8 0,0 0,-70 0,0 -0.1,-0.9 -0.2,-0.7 -0.3,-0.8 -0.4,-0.6 -0.5,-0.6 -0.6,-0.5 -0.6,-0.4 -0.8,-0.3 -0.7,-0.2 -0.8,0 0,0 -150,0 0,0 -0.9,0 -0.7,0.2 -0.8,0.3 -0.6,0.4 -0.6,0.5 -0.5,0.6 -0.4,0.6 -0.3,0.8 -0.2,0.7 0,0.9 0,0 0,70 M 0,0 1360,0 1360,1760 0,1760 0,0 z"
         inkscape:connector-curvature="0" /></clipPath><clipPath
       id="clipPath1196"
       clipPathUnits="userSpaceOnUse"><path
         id="path1198"
         d="m 560,235 0,0 0,0.8 0.2,0.7 0.3,0.8 0.4,0.6 0.5,0.6 0.6,0.5 0.6,0.4 0.8,0.3 0.7,0.2 0.9,0.1 0,0 150,0 0,0 0.8,-0.1 0.7,-0.2 0.8,-0.3 0.6,-0.4 0.6,-0.5 0.5,-0.6 0.4,-0.6 0.3,-0.8 0.2,-0.7 0.1,-0.8 0,0 0,-70 0,0 -0.1,-0.9 -0.2,-0.7 -0.3,-0.8 -0.4,-0.6 -0.5,-0.6 -0.6,-0.5 -0.6,-0.4 -0.8,-0.3 -0.7,-0.2 -0.8,0 0,0 -150,0 0,0 -0.9,0 -0.7,0.2 -0.8,0.3 -0.6,0.4 -0.6,0.5 -0.5,0.6 -0.4,0.6 -0.3,0.8 -0.2,0.7 0,0.9 0,0 0,70 m -40,200 0,0 0,0.8 0.2,0.7 0.3,0.8 0.4,0.6 0.5,0.6 0.6,0.5 0.6,0.4 0.8,0.3 0.7,0.2 0.9,0.1 0,0 230,0 0,0 0.8,-0.1 0.7,-0.2 0.8,-0.3 0.6,-0.4 0.6,-0.5 0.5,-0.6 0.4,-0.6 0.3,-0.8 0.2,-0.7 0.1,-0.8 0,0 0,-110 0,0 -0.1,-0.9 -0.2,-0.7 -0.3,-0.8 -0.4,-0.6 -0.5,-0.6 -0.6,-0.5 -0.6,-0.4 -0.8,-0.3 -0.7,-0.2 -0.8,0 0,0 -230,0 0,0 -0.9,0 -0.7,0.2 -0.8,0.3 -0.6,0.4 -0.6,0.5 -0.5,0.6 -0.4,0.6 -0.3,0.8 -0.2,0.7 0,0.9 0,0 0,110 M 0,0 1360,0 1360,1760 0,1760 0,0 z"
         inkscape:connector-curvature="0" /></clipPath><clipPath
       id="clipPath1214"
       clipPathUnits="userSpaceOnUse"><path
         id="path1216"
         d="m 560,235 0,0 0,0.8 0.2,0.7 0.3,0.8 0.4,0.6 0.5,0.6 0.6,0.5 0.6,0.4 0.8,0.3 0.7,0.2 0.9,0.1 0,0 150,0 0,0 0.8,-0.1 0.7,-0.2 0.8,-0.3 0.6,-0.4 0.6,-0.5 0.5,-0.6 0.4,-0.6 0.3,-0.8 0.2,-0.7 0.1,-0.8 0,0 0,-70 0,0 -0.1,-0.9 -0.2,-0.7 -0.3,-0.8 -0.4,-0.6 -0.5,-0.6 -0.6,-0.5 -0.6,-0.4 -0.8,-0.3 -0.7,-0.2 -0.8,0 0,0 -150,0 0,0 -0.9,0 -0.7,0.2 -0.8,0.3 -0.6,0.4 -0.6,0.5 -0.5,0.6 -0.4,0.6 -0.3,0.8 -0.2,0.7 0,0.9 0,0 0,70 m -40,200 0,0 0,0.8 0.2,0.7 0.3,0.8 0.4,0.6 0.5,0.6 0.6,0.5 0.6,0.4 0.8,0.3 0.7,0.2 0.9,0.1 0,0 230,0 0,0 0.8,-0.1 0.7,-0.2 0.8,-0.3 0.6,-0.4 0.6,-0.5 0.5,-0.6 0.4,-0.6 0.3,-0.8 0.2,-0.7 0.1,-0.8 0,0 0,-110 0,0 -0.1,-0.9 -0.2,-0.7 -0.3,-0.8 -0.4,-0.6 -0.5,-0.6 -0.6,-0.5 -0.6,-0.4 -0.8,-0.3 -0.7,-0.2 -0.8,0 0,0 -230,0 0,0 -0.9,0 -0.7,0.2 -0.8,0.3 -0.6,0.4 -0.6,0.5 -0.5,0.6 -0.4,0.6 -0.3,0.8 -0.2,0.7 0,0.9 0,0 0,110 M 0,0 1360,0 1360,1760 0,1760 0,0 z"
         inkscape:connector-curvature="0" /></clipPath><clipPath
       id="clipPath1864"
       clipPathUnits="userSpaceOnUse"><path
         id="path1866"
         d="m 520,435 0,0 0,0.8 0.2,0.7 0.3,0.8 0.4,0.6 0.5,0.6 0.6,0.5 0.6,0.4 0.8,0.3 0.7,0.2 0.9,0.1 0,0 230,0 0,0 0.8,-0.1 0.7,-0.2 0.8,-0.3 0.6,-0.4 0.6,-0.5 0.5,-0.6 0.4,-0.6 0.3,-0.8 0.2,-0.7 0.1,-0.8 0,0 0,-110 0,0 -0.1,-0.9 -0.2,-0.7 -0.3,-0.8 -0.4,-0.6 -0.5,-0.6 -0.6,-0.5 -0.6,-0.4 -0.8,-0.3 -0.7,-0.2 -0.8,0 0,0 -230,0 0,0 -0.9,0 -0.7,0.2 -0.8,0.3 -0.6,0.4 -0.6,0.5 -0.5,0.6 -0.4,0.6 -0.3,0.8 -0.2,0.7 0,0.9 0,0 0,110 m -75.7,202.4 0,0 -0.7,0.4 -0.5,0.5 -0.4,0.5 -0.2,0.6 0,0.6 0,0.5 0.2,0.6 0.4,0.5 0.5,0.5 0.7,0.5 0,0 191.4,114.8 0,0 0.7,0.3 0.8,0.3 0.9,0.2 0.9,0.2 1,0 0.9,0 0.9,-0.2 0.9,-0.2 0.8,-0.3 0.8,-0.3 0,0 191.4,-114.8 0,0 0.6,-0.5 0.5,-0.5 0.4,-0.5 0.2,-0.6 0.1,-0.5 -0.1,-0.6 -0.2,-0.6 -0.4,-0.5 -0.5,-0.5 -0.6,-0.4 0,0 -191.4,-114.8 0,0 -0.8,-0.4 -0.8,-0.3 -0.9,-0.2 -0.9,-0.2 -0.9,0 -1,0 -0.9,0.2 -0.9,0.2 -0.8,0.3 -0.7,0.4 0,0 -191.4,114.8 M 0,0 1360,0 1360,1760 0,1760 0,0 z"
         inkscape:connector-curvature="0" /></clipPath><clipPath
       id="clipPath1882"
       clipPathUnits="userSpaceOnUse"><path
         id="path1884"
         d="m 520,435 0,0 0,0.8 0.2,0.7 0.3,0.8 0.4,0.6 0.5,0.6 0.6,0.5 0.6,0.4 0.8,0.3 0.7,0.2 0.9,0.1 0,0 230,0 0,0 0.8,-0.1 0.7,-0.2 0.8,-0.3 0.6,-0.4 0.6,-0.5 0.5,-0.6 0.4,-0.6 0.3,-0.8 0.2,-0.7 0.1,-0.8 0,0 0,-110 0,0 -0.1,-0.9 -0.2,-0.7 -0.3,-0.8 -0.4,-0.6 -0.5,-0.6 -0.6,-0.5 -0.6,-0.4 -0.8,-0.3 -0.7,-0.2 -0.8,0 0,0 -230,0 0,0 -0.9,0 -0.7,0.2 -0.8,0.3 -0.6,0.4 -0.6,0.5 -0.5,0.6 -0.4,0.6 -0.3,0.8 -0.2,0.7 0,0.9 0,0 0,110 m -75.7,202.4 0,0 -0.7,0.4 -0.5,0.5 -0.4,0.5 -0.2,0.6 0,0.6 0,0.5 0.2,0.6 0.4,0.5 0.5,0.5 0.7,0.5 0,0 191.4,114.8 0,0 0.7,0.3 0.8,0.3 0.9,0.2 0.9,0.2 1,0 0.9,0 0.9,-0.2 0.9,-0.2 0.8,-0.3 0.8,-0.3 0,0 191.4,-114.8 0,0 0.6,-0.5 0.5,-0.5 0.4,-0.5 0.2,-0.6 0.1,-0.5 -0.1,-0.6 -0.2,-0.6 -0.4,-0.5 -0.5,-0.5 -0.6,-0.4 0,0 -191.4,-114.8 0,0 -0.8,-0.4 -0.8,-0.3 -0.9,-0.2 -0.9,-0.2 -0.9,0 -1,0 -0.9,0.2 -0.9,0.2 -0.8,0.3 -0.7,0.4 0,0 -191.4,114.8 M 0,0 1360,0 1360,1760 0,1760 0,0 z"
         inkscape:connector-curvature="0" /></clipPath><clipPath
       id="clipPath2350"
       clipPathUnits="userSpaceOnUse"><path
         id="path2352"
         d="m 444.3,637.4 0,0 -0.7,0.4 -0.5,0.5 -0.4,0.5 -0.2,0.6 0,0.6 0,0.5 0.2,0.6 0.4,0.5 0.5,0.5 0.7,0.5 0,0 191.4,114.8 0,0 0.7,0.3 0.8,0.3 0.9,0.2 0.9,0.2 1,0 0.9,0 0.9,-0.2 0.9,-0.2 0.8,-0.3 0.8,-0.3 0,0 191.4,-114.8 0,0 0.6,-0.5 0.5,-0.5 0.4,-0.5 0.2,-0.6 0.1,-0.5 -0.1,-0.6 -0.2,-0.6 -0.4,-0.5 -0.5,-0.5 -0.6,-0.4 0,0 -191.4,-114.8 0,0 -0.8,-0.4 -0.8,-0.3 -0.9,-0.2 -0.9,-0.2 -0.9,0 -1,0 -0.9,0.2 -0.9,0.2 -0.8,0.3 -0.7,0.4 0,0 -191.4,114.8 M 520,955 l 0,0 0,0.8 0.2,0.7 0.3,0.8 0.4,0.6 0.5,0.6 0.6,0.5 0.6,0.4 0.8,0.3 0.7,0.2 0.9,0.1 0,0 230,0 0,0 0.8,-0.1 0.7,-0.2 0.8,-0.3 0.6,-0.4 0.6,-0.5 0.5,-0.6 0.4,-0.6 0.3,-0.8 0.2,-0.7 0.1,-0.8 0,0 0,-110 0,0 -0.1,-0.9 -0.2,-0.7 -0.3,-0.8 -0.4,-0.6 -0.5,-0.6 -0.6,-0.5 -0.6,-0.4 -0.8,-0.3 -0.7,-0.2 -0.8,0 0,0 -230,0 0,0 -0.9,0 -0.7,0.2 -0.8,0.3 -0.6,0.4 -0.6,0.5 -0.5,0.6 -0.4,0.6 -0.3,0.8 -0.2,0.7 0,0.9 0,0 0,110 M 0,0 1360,0 1360,1760 0,1760 0,0 z"
         inkscape:connector-curvature="0" /></clipPath><clipPath
       id="clipPath2368"
       clipPathUnits="userSpaceOnUse"><path
         id="path2370"
         d="m 444.3,637.4 0,0 -0.7,0.4 -0.5,0.5 -0.4,0.5 -0.2,0.6 0,0.6 0,0.5 0.2,0.6 0.4,0.5 0.5,0.5 0.7,0.5 0,0 191.4,114.8 0,0 0.7,0.3 0.8,0.3 0.9,0.2 0.9,0.2 1,0 0.9,0 0.9,-0.2 0.9,-0.2 0.8,-0.3 0.8,-0.3 0,0 191.4,-114.8 0,0 0.6,-0.5 0.5,-0.5 0.4,-0.5 0.2,-0.6 0.1,-0.5 -0.1,-0.6 -0.2,-0.6 -0.4,-0.5 -0.5,-0.5 -0.6,-0.4 0,0 -191.4,-114.8 0,0 -0.8,-0.4 -0.8,-0.3 -0.9,-0.2 -0.9,-0.2 -0.9,0 -1,0 -0.9,0.2 -0.9,0.2 -0.8,0.3 -0.7,0.4 0,0 -191.4,114.8 M 520,955 l 0,0 0,0.8 0.2,0.7 0.3,0.8 0.4,0.6 0.5,0.6 0.6,0.5 0.6,0.4 0.8,0.3 0.7,0.2 0.9,0.1 0,0 230,0 0,0 0.8,-0.1 0.7,-0.2 0.8,-0.3 0.6,-0.4 0.6,-0.5 0.5,-0.6 0.4,-0.6 0.3,-0.8 0.2,-0.7 0.1,-0.8 0,0 0,-110 0,0 -0.1,-0.9 -0.2,-0.7 -0.3,-0.8 -0.4,-0.6 -0.5,-0.6 -0.6,-0.5 -0.6,-0.4 -0.8,-0.3 -0.7,-0.2 -0.8,0 0,0 -230,0 0,0 -0.9,0 -0.7,0.2 -0.8,0.3 -0.6,0.4 -0.6,0.5 -0.5,0.6 -0.4,0.6 -0.3,0.8 -0.2,0.7 0,0.9 0,0 0,110 M 0,0 1360,0 1360,1760 0,1760 0,0 z"
         inkscape:connector-curvature="0" /></clipPath><clipPath
       id="clipPath2420"
       clipPathUnits="userSpaceOnUse"><path
         id="path2422"
         d="m 444.3,637.4 0,0 -0.7,0.4 -0.5,0.5 -0.4,0.5 -0.2,0.6 0,0.6 0,0.5 0.2,0.6 0.4,0.5 0.5,0.5 0.7,0.5 0,0 191.4,114.8 0,0 0.7,0.3 0.8,0.3 0.9,0.2 0.9,0.2 1,0 0.9,0 0.9,-0.2 0.9,-0.2 0.8,-0.3 0.8,-0.3 0,0 191.4,-114.8 0,0 0.6,-0.5 0.5,-0.5 0.4,-0.5 0.2,-0.6 0.1,-0.5 -0.1,-0.6 -0.2,-0.6 -0.4,-0.5 -0.5,-0.5 -0.6,-0.4 0,0 -191.4,-114.8 0,0 -0.8,-0.4 -0.8,-0.3 -0.9,-0.2 -0.9,-0.2 -0.9,0 -1,0 -0.9,0.2 -0.9,0.2 -0.8,0.3 -0.7,0.4 0,0 -191.4,114.8 M 520,435 l 0,0 0,0.8 0.2,0.7 0.3,0.8 0.4,0.6 0.5,0.6 0.6,0.5 0.6,0.4 0.8,0.3 0.7,0.2 0.9,0.1 0,0 230,0 0,0 0.8,-0.1 0.7,-0.2 0.8,-0.3 0.6,-0.4 0.6,-0.5 0.5,-0.6 0.4,-0.6 0.3,-0.8 0.2,-0.7 0.1,-0.8 0,0 0,-110 0,0 -0.1,-0.9 -0.2,-0.7 -0.3,-0.8 -0.4,-0.6 -0.5,-0.6 -0.6,-0.5 -0.6,-0.4 -0.8,-0.3 -0.7,-0.2 -0.8,0 0,0 -230,0 0,0 -0.9,0 -0.7,0.2 -0.8,0.3 -0.6,0.4 -0.6,0.5 -0.5,0.6 -0.4,0.6 -0.3,0.8 -0.2,0.7 0,0.9 0,0 0,110 M 0,0 1360,0 1360,1760 0,1760 0,0 z"
         inkscape:connector-curvature="0" /></clipPath><clipPath
       id="clipPath2438"
       clipPathUnits="userSpaceOnUse"><path
         id="path2440"
         d="m 444.3,637.4 0,0 -0.7,0.4 -0.5,0.5 -0.4,0.5 -0.2,0.6 0,0.6 0,0.5 0.2,0.6 0.4,0.5 0.5,0.5 0.7,0.5 0,0 191.4,114.8 0,0 0.7,0.3 0.8,0.3 0.9,0.2 0.9,0.2 1,0 0.9,0 0.9,-0.2 0.9,-0.2 0.8,-0.3 0.8,-0.3 0,0 191.4,-114.8 0,0 0.6,-0.5 0.5,-0.5 0.4,-0.5 0.2,-0.6 0.1,-0.5 -0.1,-0.6 -0.2,-0.6 -0.4,-0.5 -0.5,-0.5 -0.6,-0.4 0,0 -191.4,-114.8 0,0 -0.8,-0.4 -0.8,-0.3 -0.9,-0.2 -0.9,-0.2 -0.9,0 -1,0 -0.9,0.2 -0.9,0.2 -0.8,0.3 -0.7,0.4 0,0 -191.4,114.8 M 520,435 l 0,0 0,0.8 0.2,0.7 0.3,0.8 0.4,0.6 0.5,0.6 0.6,0.5 0.6,0.4 0.8,0.3 0.7,0.2 0.9,0.1 0,0 230,0 0,0 0.8,-0.1 0.7,-0.2 0.8,-0.3 0.6,-0.4 0.6,-0.5 0.5,-0.6 0.4,-0.6 0.3,-0.8 0.2,-0.7 0.1,-0.8 0,0 0,-110 0,0 -0.1,-0.9 -0.2,-0.7 -0.3,-0.8 -0.4,-0.6 -0.5,-0.6 -0.6,-0.5 -0.6,-0.4 -0.8,-0.3 -0.7,-0.2 -0.8,0 0,0 -230,0 0,0 -0.9,0 -0.7,0.2 -0.8,0.3 -0.6,0.4 -0.6,0.5 -0.5,0.6 -0.4,0.6 -0.3,0.8 -0.2,0.7 0,0.9 0,0 0,110 M 0,0 1360,0 1360,1760 0,1760 0,0 z"
         inkscape:connector-curvature="0" /></clipPath><clipPath
       id="clipPath2694"
       clipPathUnits="userSpaceOnUse"><path
         id="path2696"
         d="m 520,955 0,0 0,0.8 0.2,0.7 0.3,0.8 0.4,0.6 0.5,0.6 0.6,0.5 0.6,0.4 0.8,0.3 0.7,0.2 0.9,0.1 0,0 230,0 0,0 0.8,-0.1 0.7,-0.2 0.8,-0.3 0.6,-0.4 0.6,-0.5 0.5,-0.6 0.4,-0.6 0.3,-0.8 0.2,-0.7 0.1,-0.8 0,0 0,-110 0,0 -0.1,-0.9 -0.2,-0.7 -0.3,-0.8 -0.4,-0.6 -0.5,-0.6 -0.6,-0.5 -0.6,-0.4 -0.8,-0.3 -0.7,-0.2 -0.8,0 0,0 -230,0 0,0 -0.9,0 -0.7,0.2 -0.8,0.3 -0.6,0.4 -0.6,0.5 -0.5,0.6 -0.4,0.6 -0.3,0.8 -0.2,0.7 0,0.9 0,0 0,110 m 4.2,162.2 0,0 -0.7,0.5 -0.5,0.5 -0.3,0.6 -0.2,0.6 -0.1,0.6 0.1,0.5 0.2,0.6 0.3,0.6 0.5,0.5 0.7,0.6 0,0 111.6,74.4 0,0 0.7,0.4 0.8,0.3 0.8,0.3 0.9,0.1 1,0.1 0.9,-0.1 0.9,-0.1 0.8,-0.3 0.8,-0.3 0.8,-0.4 0,0 111.6,-74.4 0,0 0.6,-0.6 0.5,-0.5 0.3,-0.6 0.2,-0.6 0.1,-0.5 -0.1,-0.6 -0.2,-0.6 -0.3,-0.6 -0.5,-0.5 -0.6,-0.5 0,0 -111.6,-74.4 0,0 -0.8,-0.5 -0.8,-0.3 -0.8,-0.3 -0.9,-0.1 -0.9,0 -1,0 -0.9,0.1 -0.8,0.3 -0.8,0.3 -0.7,0.5 0,0 -111.6,74.4 M 0,0 1360,0 1360,1760 0,1760 0,0 z"
         inkscape:connector-curvature="0" /></clipPath><clipPath
       id="clipPath2712"
       clipPathUnits="userSpaceOnUse"><path
         id="path2714"
         d="m 520,955 0,0 0,0.8 0.2,0.7 0.3,0.8 0.4,0.6 0.5,0.6 0.6,0.5 0.6,0.4 0.8,0.3 0.7,0.2 0.9,0.1 0,0 230,0 0,0 0.8,-0.1 0.7,-0.2 0.8,-0.3 0.6,-0.4 0.6,-0.5 0.5,-0.6 0.4,-0.6 0.3,-0.8 0.2,-0.7 0.1,-0.8 0,0 0,-110 0,0 -0.1,-0.9 -0.2,-0.7 -0.3,-0.8 -0.4,-0.6 -0.5,-0.6 -0.6,-0.5 -0.6,-0.4 -0.8,-0.3 -0.7,-0.2 -0.8,0 0,0 -230,0 0,0 -0.9,0 -0.7,0.2 -0.8,0.3 -0.6,0.4 -0.6,0.5 -0.5,0.6 -0.4,0.6 -0.3,0.8 -0.2,0.7 0,0.9 0,0 0,110 m 4.2,162.2 0,0 -0.7,0.5 -0.5,0.5 -0.3,0.6 -0.2,0.6 -0.1,0.6 0.1,0.5 0.2,0.6 0.3,0.6 0.5,0.5 0.7,0.6 0,0 111.6,74.4 0,0 0.7,0.4 0.8,0.3 0.8,0.3 0.9,0.1 1,0.1 0.9,-0.1 0.9,-0.1 0.8,-0.3 0.8,-0.3 0.8,-0.4 0,0 111.6,-74.4 0,0 0.6,-0.6 0.5,-0.5 0.3,-0.6 0.2,-0.6 0.1,-0.5 -0.1,-0.6 -0.2,-0.6 -0.3,-0.6 -0.5,-0.5 -0.6,-0.5 0,0 -111.6,-74.4 0,0 -0.8,-0.5 -0.8,-0.3 -0.8,-0.3 -0.9,-0.1 -0.9,0 -1,0 -0.9,0.1 -0.8,0.3 -0.8,0.3 -0.7,0.5 0,0 -111.6,74.4 M 0,0 1360,0 1360,1760 0,1760 0,0 z"
         inkscape:connector-curvature="0" /></clipPath><clipPath
       id="clipPath2784"
       clipPathUnits="userSpaceOnUse"><path
         id="path2786"
         d="m 524.2,1117.2 0,0 -0.7,0.5 -0.5,0.5 -0.3,0.6 -0.2,0.6 -0.1,0.6 0.1,0.5 0.2,0.6 0.3,0.6 0.5,0.5 0.7,0.6 0,0 111.6,74.4 0,0 0.7,0.4 0.8,0.3 0.8,0.3 0.9,0.1 1,0.1 0.9,-0.1 0.9,-0.1 0.8,-0.3 0.8,-0.3 0.8,-0.4 0,0 111.6,-74.4 0,0 0.6,-0.6 0.5,-0.5 0.3,-0.6 0.2,-0.6 0.1,-0.5 -0.1,-0.6 -0.2,-0.6 -0.3,-0.6 -0.5,-0.5 -0.6,-0.5 0,0 -111.6,-74.4 0,0 -0.8,-0.5 -0.8,-0.3 -0.8,-0.3 -0.9,-0.1 -0.9,0 -1,0 -0.9,0.1 -0.8,0.3 -0.8,0.3 -0.7,0.5 0,0 -111.6,74.4 m 35.8,237.8 0,0 0,0.8 0.2,0.7 0.3,0.8 0.4,0.6 0.5,0.6 0.6,0.5 0.6,0.4 0.8,0.3 0.7,0.2 0.9,0.1 0,0 150,0 0,0 0.8,-0.1 0.7,-0.2 0.8,-0.3 0.6,-0.4 0.6,-0.5 0.5,-0.6 0.4,-0.6 0.3,-0.8 0.2,-0.7 0.1,-0.8 0,0 0,-70 0,0 -0.1,-0.9 -0.2,-0.7 -0.3,-0.8 -0.4,-0.6 -0.5,-0.6 -0.6,-0.5 -0.6,-0.4 -0.8,-0.3 -0.7,-0.2 -0.8,0 0,0 -150,0 0,0 -0.9,0 -0.7,0.2 -0.8,0.3 -0.6,0.4 -0.6,0.5 -0.5,0.6 -0.4,0.6 -0.3,0.8 -0.2,0.7 0,0.9 0,0 0,70 M 0,0 1360,0 1360,1760 0,1760 0,0 z"
         inkscape:connector-curvature="0" /></clipPath><clipPath
       id="clipPath2802"
       clipPathUnits="userSpaceOnUse"><path
         id="path2804"
         d="m 524.2,1117.2 0,0 -0.7,0.5 -0.5,0.5 -0.3,0.6 -0.2,0.6 -0.1,0.6 0.1,0.5 0.2,0.6 0.3,0.6 0.5,0.5 0.7,0.6 0,0 111.6,74.4 0,0 0.7,0.4 0.8,0.3 0.8,0.3 0.9,0.1 1,0.1 0.9,-0.1 0.9,-0.1 0.8,-0.3 0.8,-0.3 0.8,-0.4 0,0 111.6,-74.4 0,0 0.6,-0.6 0.5,-0.5 0.3,-0.6 0.2,-0.6 0.1,-0.5 -0.1,-0.6 -0.2,-0.6 -0.3,-0.6 -0.5,-0.5 -0.6,-0.5 0,0 -111.6,-74.4 0,0 -0.8,-0.5 -0.8,-0.3 -0.8,-0.3 -0.9,-0.1 -0.9,0 -1,0 -0.9,0.1 -0.8,0.3 -0.8,0.3 -0.7,0.5 0,0 -111.6,74.4 m 35.8,237.8 0,0 0,0.8 0.2,0.7 0.3,0.8 0.4,0.6 0.5,0.6 0.6,0.5 0.6,0.4 0.8,0.3 0.7,0.2 0.9,0.1 0,0 150,0 0,0 0.8,-0.1 0.7,-0.2 0.8,-0.3 0.6,-0.4 0.6,-0.5 0.5,-0.6 0.4,-0.6 0.3,-0.8 0.2,-0.7 0.1,-0.8 0,0 0,-70 0,0 -0.1,-0.9 -0.2,-0.7 -0.3,-0.8 -0.4,-0.6 -0.5,-0.6 -0.6,-0.5 -0.6,-0.4 -0.8,-0.3 -0.7,-0.2 -0.8,0 0,0 -150,0 0,0 -0.9,0 -0.7,0.2 -0.8,0.3 -0.6,0.4 -0.6,0.5 -0.5,0.6 -0.4,0.6 -0.3,0.8 -0.2,0.7 0,0.9 0,0 0,70 M 0,0 1360,0 1360,1760 0,1760 0,0 z"
         inkscape:connector-curvature="0" /></clipPath><clipPath
       id="clipPath2862"
       clipPathUnits="userSpaceOnUse"><path
         id="path2864"
         d="m 524.2,1117.2 0,0 -0.7,0.5 -0.5,0.5 -0.3,0.6 -0.2,0.6 -0.1,0.6 0.1,0.5 0.2,0.6 0.3,0.6 0.5,0.5 0.7,0.6 0,0 111.6,74.4 0,0 0.7,0.4 0.8,0.3 0.8,0.3 0.9,0.1 1,0.1 0.9,-0.1 0.9,-0.1 0.8,-0.3 0.8,-0.3 0.8,-0.4 0,0 111.6,-74.4 0,0 0.6,-0.6 0.5,-0.5 0.3,-0.6 0.2,-0.6 0.1,-0.5 -0.1,-0.6 -0.2,-0.6 -0.3,-0.6 -0.5,-0.5 -0.6,-0.5 0,0 -111.6,-74.4 0,0 -0.8,-0.5 -0.8,-0.3 -0.8,-0.3 -0.9,-0.1 -0.9,0 -1,0 -0.9,0.1 -0.8,0.3 -0.8,0.3 -0.7,0.5 0,0 -111.6,74.4 M 520,435 l 0,0 0,0.8 0.2,0.7 0.3,0.8 0.4,0.6 0.5,0.6 0.6,0.5 0.6,0.4 0.8,0.3 0.7,0.2 0.9,0.1 0,0 230,0 0,0 0.8,-0.1 0.7,-0.2 0.8,-0.3 0.6,-0.4 0.6,-0.5 0.5,-0.6 0.4,-0.6 0.3,-0.8 0.2,-0.7 0.1,-0.8 0,0 0,-110 0,0 -0.1,-0.9 -0.2,-0.7 -0.3,-0.8 -0.4,-0.6 -0.5,-0.6 -0.6,-0.5 -0.6,-0.4 -0.8,-0.3 -0.7,-0.2 -0.8,0 0,0 -230,0 0,0 -0.9,0 -0.7,0.2 -0.8,0.3 -0.6,0.4 -0.6,0.5 -0.5,0.6 -0.4,0.6 -0.3,0.8 -0.2,0.7 0,0.9 0,0 0,110 M 0,0 1360,0 1360,1760 0,1760 0,0 z"
         inkscape:connector-curvature="0" /></clipPath><clipPath
       id="clipPath2880"
       clipPathUnits="userSpaceOnUse"><path
         id="path2882"
         d="m 524.2,1117.2 0,0 -0.7,0.5 -0.5,0.5 -0.3,0.6 -0.2,0.6 -0.1,0.6 0.1,0.5 0.2,0.6 0.3,0.6 0.5,0.5 0.7,0.6 0,0 111.6,74.4 0,0 0.7,0.4 0.8,0.3 0.8,0.3 0.9,0.1 1,0.1 0.9,-0.1 0.9,-0.1 0.8,-0.3 0.8,-0.3 0.8,-0.4 0,0 111.6,-74.4 0,0 0.6,-0.6 0.5,-0.5 0.3,-0.6 0.2,-0.6 0.1,-0.5 -0.1,-0.6 -0.2,-0.6 -0.3,-0.6 -0.5,-0.5 -0.6,-0.5 0,0 -111.6,-74.4 0,0 -0.8,-0.5 -0.8,-0.3 -0.8,-0.3 -0.9,-0.1 -0.9,0 -1,0 -0.9,0.1 -0.8,0.3 -0.8,0.3 -0.7,0.5 0,0 -111.6,74.4 M 520,435 l 0,0 0,0.8 0.2,0.7 0.3,0.8 0.4,0.6 0.5,0.6 0.6,0.5 0.6,0.4 0.8,0.3 0.7,0.2 0.9,0.1 0,0 230,0 0,0 0.8,-0.1 0.7,-0.2 0.8,-0.3 0.6,-0.4 0.6,-0.5 0.5,-0.6 0.4,-0.6 0.3,-0.8 0.2,-0.7 0.1,-0.8 0,0 0,-110 0,0 -0.1,-0.9 -0.2,-0.7 -0.3,-0.8 -0.4,-0.6 -0.5,-0.6 -0.6,-0.5 -0.6,-0.4 -0.8,-0.3 -0.7,-0.2 -0.8,0 0,0 -230,0 0,0 -0.9,0 -0.7,0.2 -0.8,0.3 -0.6,0.4 -0.6,0.5 -0.5,0.6 -0.4,0.6 -0.3,0.8 -0.2,0.7 0,0.9 0,0 0,110 M 0,0 1360,0 1360,1760 0,1760 0,0 z"
         inkscape:connector-curvature="0" /></clipPath></defs><g
     id="g26"
     transform="matrix(0.59999999,0,0,0.59999999,-133.99999,-55.99999)"><g
       id="g28"><g
         id="g30"><path
           id="path32"
           style="fill:none;stroke:#000000;stroke-width:2;stroke-linecap:butt;stroke-linejoin:miter;stroke-miterlimit:10;stroke-opacity:1;stroke-dasharray:none"
           d="m 560,165 c 0,-2.8 2.2,-5 5,-5 l 150,0 c 2.8,0 5,2.2 5,5 l 0,70 c 0,2.8 -2.2,5 -5,5 l -150,0 c -2.8,0 -5,-2.2 -5,-5 l 0,-70 z"
           inkscape:connector-curvature="0" /></g></g></g><g
     id="g180"
     transform="matrix(0.59999999,0,0,0.59999999,-133.99999,-55.99999)"><g
       id="g182"><g
         id="g184"><path
           id="path186"
           style="fill:none;stroke:#000000;stroke-width:2;stroke-linecap:butt;stroke-linejoin:miter;stroke-miterlimit:10;stroke-opacity:1;stroke-dasharray:none"
           d="m 320,165 c 0,-2.8 2.2,-5 5,-5 l 150,0 c 2.8,0 5,2.2 5,5 l 0,70 c 0,2.8 -2.2,5 -5,5 l -150,0 c -2.8,0 -5,-2.2 -5,-5 l 0,-70 z"
           inkscape:connector-curvature="0" /></g></g></g><g
     id="g398"
     transform="matrix(0.59999999,0,0,0.59999999,-133.99999,-55.99999)"><g
       id="g400"><g
         id="g402"><path
           id="path404"
           style="fill:none;stroke:#000000;stroke-width:2;stroke-linecap:butt;stroke-linejoin:miter;stroke-miterlimit:10;stroke-opacity:1;stroke-dasharray:none"
           d="m 800,165 c 0,-2.8 2.2,-5 5,-5 l 150,0 c 2.8,0 5,2.2 5,5 l 0,70 c 0,2.8 -2.2,5 -5,5 l -150,0 c -2.8,0 -5,-2.2 -5,-5 l 0,-70 z"
           inkscape:connector-curvature="0" /></g></g></g><g
     id="g520"
     transform="matrix(0.59999999,0,0,0.59999999,-133.99999,-55.99999)"><g
       id="g522"><g
         id="g524"><g
           id="g526"><g
             id="g528"><path
               id="path530"
               style="fill:none;stroke:#000000;stroke-width:2;stroke-linecap:butt;stroke-linejoin:miter;stroke-miterlimit:10;stroke-opacity:1;stroke-dasharray:none"
               d="m 480,200 80,0"
               inkscape:connector-curvature="0" /></g></g></g><g
         id="g532"><g
           clip-path="url(#clipPath536)"
           id="g534"><g
             id="g540"><g
               id="g542"><path
                 id="path544"
                 style="fill:none;stroke:#000000;stroke-width:2;stroke-linecap:butt;stroke-linejoin:miter;stroke-miterlimit:10;stroke-opacity:1;stroke-dasharray:none"
                 d="m 480,200 -3,0"
                 inkscape:connector-curvature="0" /></g></g></g></g><g
         id="g546"><path
           id="path548"
           style="fill:#000000;fill-opacity:1;fill-rule:nonzero;stroke:none"
           d="m 560,200 -14.3,4.6 0,-9.2 14.3,4.6 z"
           inkscape:connector-curvature="0" /></g><g
         id="g550"><g
           clip-path="url(#clipPath554)"
           id="g552"><g
             id="g558"><g
               id="g560"><path
                 id="path562"
                 style="fill:none;stroke:#000000;stroke-width:2;stroke-linecap:butt;stroke-linejoin:miter;stroke-miterlimit:10;stroke-opacity:1;stroke-dasharray:none"
                 d="m 560,200 -14.3,4.6 0,-9.2 14.3,4.6 z"
                 inkscape:connector-curvature="0" /></g></g></g></g></g></g><g
     id="g564"
     transform="matrix(0.59999999,0,0,0.59999999,-133.99999,-55.99999)"><g
       id="g566"><g
         id="g568"><g
           id="g570"><g
             id="g572"><path
               id="path574"
               style="fill:none;stroke:#000000;stroke-width:2;stroke-linecap:butt;stroke-linejoin:miter;stroke-miterlimit:10;stroke-opacity:1;stroke-dasharray:none"
               d="m 800,200 -80,0"
               inkscape:connector-curvature="0" /></g></g></g><g
         id="g576"><g
           clip-path="url(#clipPath580)"
           id="g578"><g
             id="g584"><g
               id="g586"><path
                 id="path588"
                 style="fill:none;stroke:#000000;stroke-width:2;stroke-linecap:butt;stroke-linejoin:miter;stroke-miterlimit:10;stroke-opacity:1;stroke-dasharray:none"
                 d="m 800,200 3,0"
                 inkscape:connector-curvature="0" /></g></g></g></g><g
         id="g590"><path
           id="path592"
           style="fill:#000000;fill-opacity:1;fill-rule:nonzero;stroke:none"
           d="m 720,200 14.3,-4.6 0,9.2 L 720,200 z"
           inkscape:connector-curvature="0" /></g><g
         id="g594"><g
           clip-path="url(#clipPath598)"
           id="g596"><g
             id="g602"><g
               id="g604"><path
                 id="path606"
                 style="fill:none;stroke:#000000;stroke-width:2;stroke-linecap:butt;stroke-linejoin:miter;stroke-miterlimit:10;stroke-opacity:1;stroke-dasharray:none"
                 d="m 720,200 14.3,-4.6 0,9.2 L 720,200 z"
                 inkscape:connector-curvature="0" /></g></g></g></g></g></g><g
     id="g616"
     transform="matrix(0.59999999,0,0,0.59999999,-133.99999,-55.99999)"><g
       id="g618"><g
         id="g620"><path
           id="path622"
           style="fill:none;stroke:#000000;stroke-width:2;stroke-linecap:butt;stroke-linejoin:miter;stroke-miterlimit:10;stroke-opacity:1;stroke-dasharray:none"
           d="m 520,325 c 0,-2.8 2.2,-5 5,-5 l 230,0 c 2.8,0 5,2.2 5,5 l 0,110 c 0,2.8 -2.2,5 -5,5 l -230,0 c -2.8,0 -5,-2.2 -5,-5 l 0,-110 z"
           inkscape:connector-curvature="0" /></g></g></g><g
     id="g1180"
     transform="matrix(0.59999999,0,0,0.59999999,-133.99999,-55.99999)"><g
       id="g1182"><g
         id="g1184"><g
           id="g1186"><g
             id="g1188"><path
               id="path1190"
               style="fill:none;stroke:#000000;stroke-width:2;stroke-linecap:butt;stroke-linejoin:miter;stroke-miterlimit:10;stroke-opacity:1;stroke-dasharray:none"
               d="m 640,240 0,80"
               inkscape:connector-curvature="0" /></g></g></g><g
         id="g1192"><g
           clip-path="url(#clipPath1196)"
           id="g1194"><g
             id="g1200"><g
               id="g1202"><path
                 id="path1204"
                 style="fill:none;stroke:#000000;stroke-width:2;stroke-linecap:butt;stroke-linejoin:miter;stroke-miterlimit:10;stroke-opacity:1;stroke-dasharray:none"
                 d="m 640,240 0,-3"
                 inkscape:connector-curvature="0" /></g></g></g></g><g
         id="g1206"><path
           id="path1208"
           style="fill:#000000;fill-opacity:1;fill-rule:nonzero;stroke:none"
           d="m 640,320 -4.6,-14.3 9.2,0 -4.6,14.3 z"
           inkscape:connector-curvature="0" /></g><g
         id="g1210"><g
           clip-path="url(#clipPath1214)"
           id="g1212"><g
             id="g1218"><g
               id="g1220"><path
                 id="path1222"
                 style="fill:none;stroke:#000000;stroke-width:2;stroke-linecap:butt;stroke-linejoin:miter;stroke-miterlimit:10;stroke-opacity:1;stroke-dasharray:none"
                 d="m 640,320 -4.6,-14.3 9.2,0 -4.6,14.3 z"
                 inkscape:connector-curvature="0" /></g></g></g></g></g></g><g
     id="g1232"
     transform="matrix(0.59999999,0,0,0.59999999,-133.99999,-55.99999)"><g
       id="g1234"><g
         id="g1236"><path
           id="path1238"
           style="fill:none;stroke:#000000;stroke-width:2;stroke-linecap:butt;stroke-linejoin:miter;stroke-miterlimit:10;stroke-opacity:1;stroke-dasharray:none"
           d="m 635.7,522.6 c 2.4,-1.4 6.2,-1.4 8.6,0 l 191.4,114.8 c 2.4,1.4 2.4,3.8 0,5.2 L 644.3,757.4 c -2.4,1.4 -6.2,1.4 -8.6,0 L 444.3,642.6 c -2.4,-1.4 -2.4,-3.8 0,-5.2 L 635.7,522.6 z"
           inkscape:connector-curvature="0" /></g></g></g><g
     id="g1848"
     transform="matrix(0.59999999,0,0,0.59999999,-133.99999,-55.99999)"><g
       id="g1850"><g
         id="g1852"><g
           id="g1854"><g
             id="g1856"><path
               id="path1858"
               style="fill:none;stroke:#000000;stroke-width:2;stroke-linecap:butt;stroke-linejoin:miter;stroke-miterlimit:10;stroke-opacity:1;stroke-dasharray:none"
               d="m 640,440 0,80"
               inkscape:connector-curvature="0" /></g></g></g><g
         id="g1860"><g
           clip-path="url(#clipPath1864)"
           id="g1862"><g
             id="g1868"><g
               id="g1870"><path
                 id="path1872"
                 style="fill:none;stroke:#000000;stroke-width:2;stroke-linecap:butt;stroke-linejoin:miter;stroke-miterlimit:10;stroke-opacity:1;stroke-dasharray:none"
                 d="m 640,440 0,-3"
                 inkscape:connector-curvature="0" /></g></g></g></g><g
         id="g1874"><path
           id="path1876"
           style="fill:#000000;fill-opacity:1;fill-rule:nonzero;stroke:none"
           d="m 640,520 -4.6,-14.3 9.2,0 -4.6,14.3 z"
           inkscape:connector-curvature="0" /></g><g
         id="g1878"><g
           clip-path="url(#clipPath1882)"
           id="g1880"><g
             id="g1886"><g
               id="g1888"><path
                 id="path1890"
                 style="fill:none;stroke:#000000;stroke-width:2;stroke-linecap:butt;stroke-linejoin:miter;stroke-miterlimit:10;stroke-opacity:1;stroke-dasharray:none"
                 d="m 640,520 -4.6,-14.3 9.2,0 -4.6,14.3 z"
                 inkscape:connector-curvature="0" /></g></g></g></g></g></g><g
     id="g1900"
     transform="matrix(0.59999999,0,0,0.59999999,-133.99999,-55.99999)"><g
       id="g1902"><g
         id="g1904"><path
           id="path1906"
           style="fill:none;stroke:#000000;stroke-width:2;stroke-linecap:butt;stroke-linejoin:miter;stroke-miterlimit:10;stroke-opacity:1;stroke-dasharray:none"
           d="m 520,845 c 0,-2.8 2.2,-5 5,-5 l 230,0 c 2.8,0 5,2.2 5,5 l 0,110 c 0,2.8 -2.2,5 -5,5 l -230,0 c -2.8,0 -5,-2.2 -5,-5 l 0,-110 z"
           inkscape:connector-curvature="0" /></g></g></g><g
     id="g2338"
     transform="matrix(0.59999999,0,0,0.59999999,-133.99999,-55.99999)"><g
       id="g2340"><g
         id="g2342"><path
           id="path2344"
           style="fill:none;stroke:#000000;stroke-width:2;stroke-linecap:butt;stroke-linejoin:miter;stroke-miterlimit:10;stroke-opacity:1;stroke-dasharray:none"
           d="m 640,760 0,80"
           inkscape:connector-curvature="0" /></g></g></g><g
     id="g2346"
     transform="matrix(0.59999999,0,0,0.59999999,-133.99999,-55.99999)"><g
       clip-path="url(#clipPath2350)"
       id="g2348"><g
         id="g2354"><g
           id="g2356"><path
             id="path2358"
             style="fill:none;stroke:#000000;stroke-width:2;stroke-linecap:butt;stroke-linejoin:miter;stroke-miterlimit:10;stroke-opacity:1;stroke-dasharray:none"
             d="m 640,760 0,-3"
             inkscape:connector-curvature="0" /></g></g></g></g><g
     id="g2360"
     transform="matrix(0.59999999,0,0,0.59999999,-133.99999,-55.99999)"><path
       id="path2362"
       style="fill:#000000;fill-opacity:1;fill-rule:nonzero;stroke:none"
       d="m 640,840 -4.6,-14.3 9.2,0 -4.6,14.3 z"
       inkscape:connector-curvature="0" /></g><g
     id="g2364"
     transform="matrix(0.59999999,0,0,0.59999999,-133.99999,-55.99999)"><g
       clip-path="url(#clipPath2368)"
       id="g2366"><g
         id="g2372"><g
           id="g2374"><path
             id="path2376"
             style="fill:none;stroke:#000000;stroke-width:2;stroke-linecap:butt;stroke-linejoin:miter;stroke-miterlimit:10;stroke-opacity:1;stroke-dasharray:none"
             d="m 640,840 -4.6,-14.3 9.2,0 -4.6,14.3 z"
             inkscape:connector-curvature="0" /></g></g></g></g><g
     id="g2408"
     transform="matrix(0.59999999,0,0,0.59999999,-133.99999,-55.99999)"><g
       id="g2410"><g
         id="g2412"><path
           id="path2414"
           style="fill:none;stroke:#000000;stroke-width:2;stroke-linecap:butt;stroke-linejoin:miter;stroke-miterlimit:10;stroke-opacity:1;stroke-dasharray:none"
           d="m 440,640 -35,0 c -2.8,0 -5,-2.2 -5,-5 l 0,-250 c 0,-2.8 2.2,-5 5,-5 l 115,0"
           inkscape:connector-curvature="0" /></g></g></g><g
     id="g2416"
     transform="matrix(0.59999999,0,0,0.59999999,-133.99999,-55.99999)"><g
       clip-path="url(#clipPath2420)"
       id="g2418"><g
         id="g2424"><g
           id="g2426"><path
             id="path2428"
             style="fill:none;stroke:#000000;stroke-width:2;stroke-linecap:butt;stroke-linejoin:miter;stroke-miterlimit:10;stroke-opacity:1;stroke-dasharray:none"
             d="m 440,640 3,0"
             inkscape:connector-curvature="0" /></g></g></g></g><g
     id="g2430"
     transform="matrix(0.59999999,0,0,0.59999999,-133.99999,-55.99999)"><path
       id="path2432"
       style="fill:#000000;fill-opacity:1;fill-rule:nonzero;stroke:none"
       d="m 520,380 -14.3,4.6 0,-9.2 14.3,4.6 z"
       inkscape:connector-curvature="0" /></g><g
     id="g2434"
     transform="matrix(0.59999999,0,0,0.59999999,-133.99999,-55.99999)"><g
       clip-path="url(#clipPath2438)"
       id="g2436"><g
         id="g2442"><g
           id="g2444"><path
             id="path2446"
             style="fill:none;stroke:#000000;stroke-width:2;stroke-linecap:butt;stroke-linejoin:miter;stroke-miterlimit:10;stroke-opacity:1;stroke-dasharray:none"
             d="m 520,380 -14.3,4.6 0,-9.2 14.3,4.6 z"
             inkscape:connector-curvature="0" /></g></g></g></g><g
     id="g2482"
     transform="matrix(0.59999999,0,0,0.59999999,-133.99999,-55.99999)"><g
       id="g2484"><g
         id="g2486"><path
           id="path2488"
           style="fill:none;stroke:#000000;stroke-width:2;stroke-linecap:butt;stroke-linejoin:miter;stroke-miterlimit:10;stroke-opacity:1;stroke-dasharray:none"
           d="m 635.8,1042.8 c 2.3,-1.6 6.1,-1.6 8.4,0 l 111.6,74.4 c 2.3,1.6 2.3,4 0,5.6 l -111.6,74.4 c -2.3,1.6 -6.1,1.6 -8.4,0 l -111.6,-74.4 c -2.3,-1.6 -2.3,-4 0,-5.6 l 111.6,-74.4 z"
           inkscape:connector-curvature="0" /></g></g></g><g
     id="g2678"
     transform="matrix(0.59999999,0,0,0.59999999,-133.99999,-55.99999)"><g
       id="g2680"><g
         id="g2682"><g
           id="g2684"><g
             id="g2686"><path
               id="path2688"
               style="fill:none;stroke:#000000;stroke-width:2;stroke-linecap:butt;stroke-linejoin:miter;stroke-miterlimit:10;stroke-opacity:1;stroke-dasharray:none"
               d="m 640,960 0,80"
               inkscape:connector-curvature="0" /></g></g></g><g
         id="g2690"><g
           clip-path="url(#clipPath2694)"
           id="g2692"><g
             id="g2698"><g
               id="g2700"><path
                 id="path2702"
                 style="fill:none;stroke:#000000;stroke-width:2;stroke-linecap:butt;stroke-linejoin:miter;stroke-miterlimit:10;stroke-opacity:1;stroke-dasharray:none"
                 d="m 640,960 0,-3"
                 inkscape:connector-curvature="0" /></g></g></g></g><g
         id="g2704"><path
           id="path2706"
           style="fill:#000000;fill-opacity:1;fill-rule:nonzero;stroke:none"
           d="m 640,1040 -4.6,-14.3 9.2,0 -4.6,14.3 z"
           inkscape:connector-curvature="0" /></g><g
         id="g2708"><g
           clip-path="url(#clipPath2712)"
           id="g2710"><g
             id="g2716"><g
               id="g2718"><path
                 id="path2720"
                 style="fill:none;stroke:#000000;stroke-width:2;stroke-linecap:butt;stroke-linejoin:miter;stroke-miterlimit:10;stroke-opacity:1;stroke-dasharray:none"
                 d="m 640,1040 -4.6,-14.3 9.2,0 -4.6,14.3 z"
                 inkscape:connector-curvature="0" /></g></g></g></g></g></g><g
     id="g2730"
     transform="matrix(0.59999999,0,0,0.59999999,-133.99999,-55.99999)"><g
       id="g2732"><g
         id="g2734"><path
           id="path2736"
           style="fill:none;stroke:#000000;stroke-width:2;stroke-linecap:butt;stroke-linejoin:miter;stroke-miterlimit:10;stroke-opacity:1;stroke-dasharray:none"
           d="m 560,1285 c 0,-2.8 2.2,-5 5,-5 l 150,0 c 2.8,0 5,2.2 5,5 l 0,70 c 0,2.8 -2.2,5 -5,5 l -150,0 c -2.8,0 -5,-2.2 -5,-5 l 0,-70 z"
           inkscape:connector-curvature="0" /></g></g></g><g
     id="g2772"
     transform="matrix(0.59999999,0,0,0.59999999,-133.99999,-55.99999)"><g
       id="g2774"><g
         id="g2776"><path
           id="path2778"
           style="fill:none;stroke:#000000;stroke-width:2;stroke-linecap:butt;stroke-linejoin:miter;stroke-miterlimit:10;stroke-opacity:1;stroke-dasharray:none"
           d="m 640,1200 0,80"
           inkscape:connector-curvature="0" /></g></g></g><g
     id="g2780"
     transform="matrix(0.59999999,0,0,0.59999999,-133.99999,-55.99999)"><g
       clip-path="url(#clipPath2784)"
       id="g2782"><g
         id="g2788"><g
           id="g2790"><path
             id="path2792"
             style="fill:none;stroke:#000000;stroke-width:2;stroke-linecap:butt;stroke-linejoin:miter;stroke-miterlimit:10;stroke-opacity:1;stroke-dasharray:none"
             d="m 640,1200 0,-3"
             inkscape:connector-curvature="0" /></g></g></g></g><g
     id="g2794"
     transform="matrix(0.59999999,0,0,0.59999999,-133.99999,-55.99999)"><path
       id="path2796"
       style="fill:#000000;fill-opacity:1;fill-rule:nonzero;stroke:none"
       d="m 640,1280 -4.6,-14.3 9.2,0 -4.6,14.3 z"
       inkscape:connector-curvature="0" /></g><g
     id="g2798"
     transform="matrix(0.59999999,0,0,0.59999999,-133.99999,-55.99999)"><g
       clip-path="url(#clipPath2802)"
       id="g2800"><g
         id="g2806"><g
           id="g2808"><path
             id="path2810"
             style="fill:none;stroke:#000000;stroke-width:2;stroke-linecap:butt;stroke-linejoin:miter;stroke-miterlimit:10;stroke-opacity:1;stroke-dasharray:none"
             d="m 640,1280 -4.6,-14.3 9.2,0 -4.6,14.3 z"
             inkscape:connector-curvature="0" /></g></g></g></g><g
     id="g2850"
     transform="matrix(0.59999999,0,0,0.59999999,-133.99999,-55.99999)"><g
       id="g2852"><g
         id="g2854"><path
           id="path2856"
           style="fill:none;stroke:#000000;stroke-width:2;stroke-linecap:butt;stroke-linejoin:miter;stroke-miterlimit:10;stroke-opacity:1;stroke-dasharray:none"
           d="m 760,1120 115,0 c 2.8,0 5,-2.2 5,-5 l 0,-730 c 0,-2.8 -2.2,-5 -5,-5 l -115,0"
           inkscape:connector-curvature="0" /></g></g></g><g
     id="g2858"
     transform="matrix(0.59999999,0,0,0.59999999,-133.99999,-55.99999)"><g
       clip-path="url(#clipPath2862)"
       id="g2860"><g
         id="g2866"><g
           id="g2868"><path
             id="path2870"
             style="fill:none;stroke:#000000;stroke-width:2;stroke-linecap:butt;stroke-linejoin:miter;stroke-miterlimit:10;stroke-opacity:1;stroke-dasharray:none"
             d="m 760,1120 -3,0"
             inkscape:connector-curvature="0" /></g></g></g></g><g
     id="g2872"
     transform="matrix(0.59999999,0,0,0.59999999,-133.99999,-55.99999)"><path
       id="path2874"
       style="fill:#000000;fill-opacity:1;fill-rule:nonzero;stroke:none"
       d="m 760,380 14.3,-4.6 0,9.2 L 760,380 z"
       inkscape:connector-curvature="0" /></g><g
     id="g2876"
     transform="matrix(0.59999999,0,0,0.59999999,-133.99999,-55.99999)"><g
       clip-path="url(#clipPath2880)"
       id="g2878"><g
         id="g2884"><g
           id="g2886"><path
             id="path2888"
             style="fill:none;stroke:#000000;stroke-width:2;stroke-linecap:butt;stroke-linejoin:miter;stroke-miterlimit:10;stroke-opacity:1;stroke-dasharray:none"
             d="m 760,380 14.3,-4.6 0,9.2 L 760,380 z"
             inkscape:connector-curvature="0" /></g></g></g></g><text
     xml:space="preserve"
     style="font-size:16px;font-style:normal;font-variant:normal;font-weight:normal;font-stretch:normal;line-height:125%;letter-spacing:0px;word-spacing:0px;fill:#000000;fill-opacity:1;stroke:none;font-family:Serif;-inkscape-font-specification:Serif"
     x="105.92823"
     y="60.014656"
     id="text11073"
     sodipodi:linespacing="125%"><tspan
       sodipodi:role="line"
       id="tspan11075"
       x="105.92823"
       y="60.014656"
       style="font-size:12px;text-align:center;text-anchor:middle">Trayectoria del</tspan><tspan
       sodipodi:role="line"
       x="105.92823"
       y="77.514656"
       style="font-size:12px;text-align:center;text-anchor:middle"
       id="tspan11077">vehículo</tspan></text>
<text
     xml:space="preserve"
     style="font-size:16px;font-style:normal;font-variant:normal;font-weight:normal;font-stretch:normal;line-height:125%;letter-spacing:0px;word-spacing:0px;fill:#000000;fill-opacity:1;stroke:none;font-family:Serif;-inkscape-font-specification:Serif"
     x="249.90625"
     y="68.083992"
     id="text11073-1"
     sodipodi:linespacing="125%"><tspan
       sodipodi:role="line"
       x="249.90625"
       y="68.083992"
       style="font-size:12px;text-align:center;text-anchor:middle"
       id="tspan11077-4">Datos de entrada</tspan></text>
<text
     xml:space="preserve"
     style="font-size:16px;font-style:normal;font-variant:normal;font-weight:normal;font-stretch:normal;line-height:125%;letter-spacing:0px;word-spacing:0px;fill:#000000;fill-opacity:1;stroke:none;font-family:Serif;-inkscape-font-specification:Serif"
     x="393.90625"
     y="68.083992"
     id="text11073-1-0"
     sodipodi:linespacing="125%"><tspan
       sodipodi:role="line"
       x="393.90625"
       y="68.083992"
       style="font-size:12px;text-align:center;text-anchor:middle"
       id="tspan11077-4-9">Red de calles</tspan></text>
<text
     xml:space="preserve"
     style="font-size:16px;font-style:normal;font-variant:normal;font-weight:normal;font-stretch:normal;line-height:125%;letter-spacing:0px;word-spacing:0px;fill:#000000;fill-opacity:1;stroke:none;font-family:Serif;-inkscape-font-specification:Serif"
     x="250.1084"
     y="161.08398"
     id="text11073-4"
     sodipodi:linespacing="125%"><tspan
       sodipodi:role="line"
       x="250.1084"
       y="161.08398"
       style="font-size:12px;text-align:center;text-anchor:middle"
       id="tspan11077-8">Proceso de MM en un nodo</tspan><tspan
       sodipodi:role="line"
       x="251.6084"
       y="176.08398"
       style="font-size:12px;text-align:center;text-anchor:middle"
       id="tspan12150">o intersección para </tspan><tspan
       sodipodi:role="line"
       x="250.1084"
       y="191.08398"
       style="font-size:12px;text-align:center;text-anchor:middle"
       id="tspan12152">seleccionar un enlace</tspan></text>
<text
     xml:space="preserve"
     style="font-size:16px;font-style:normal;font-variant:normal;font-weight:normal;font-stretch:normal;line-height:125%;letter-spacing:0px;word-spacing:0px;fill:#000000;fill-opacity:1;stroke:none;font-family:Serif;-inkscape-font-specification:Serif"
     x="249.94434"
     y="315.88281"
     id="text11073-4-2"
     sodipodi:linespacing="125%"><tspan
       sodipodi:role="line"
       x="249.94434"
       y="315.88281"
       style="font-size:12px;text-align:center;text-anchor:middle"
       id="tspan12152-5">¿El siguiente punto puede</tspan><tspan
       sodipodi:role="line"
       x="251.44434"
       y="330.88281"
       style="font-size:12px;text-align:center;text-anchor:middle"
       id="tspan12806">ser asignado al enlace </tspan><tspan
       sodipodi:role="line"
       x="249.94434"
       y="345.88281"
       style="font-size:12px;text-align:center;text-anchor:middle"
       id="tspan12808">seleccionado previamente?</tspan></text>
<text
     xml:space="preserve"
     style="font-size:16px;font-style:normal;font-variant:normal;font-weight:normal;font-stretch:normal;line-height:125%;letter-spacing:0px;word-spacing:0px;fill:#000000;fill-opacity:1;stroke:none;font-family:Serif;-inkscape-font-specification:Serif"
     x="94.480087"
     y="253.89063"
     id="text11073-1-1"
     sodipodi:linespacing="125%"><tspan
       sodipodi:role="line"
       x="94.480087"
       y="253.89063"
       style="font-size:12px;text-align:center;text-anchor:middle"
       id="tspan11077-4-7">No</tspan></text>
<text
     xml:space="preserve"
     style="font-size:16px;font-style:normal;font-variant:normal;font-weight:normal;font-stretch:normal;line-height:125%;letter-spacing:0px;word-spacing:0px;fill:#000000;fill-opacity:1;stroke:none;font-family:Serif;-inkscape-font-specification:Serif"
     x="238.48009"
     y="427.89063"
     id="text11073-1-1-1"
     sodipodi:linespacing="125%"><tspan
       sodipodi:role="line"
       x="238.48009"
       y="427.89063"
       style="font-size:12px;text-align:center;text-anchor:middle"
       id="tspan11077-4-7-1">Sí</tspan></text>
<text
     xml:space="preserve"
     style="font-size:16px;font-style:normal;font-variant:normal;font-weight:normal;font-stretch:normal;line-height:125%;letter-spacing:0px;word-spacing:0px;fill:#000000;fill-opacity:1;stroke:none;font-family:Serif;-inkscape-font-specification:Serif"
     x="250.12012"
     y="479.38281"
     id="text11073-5"
     sodipodi:linespacing="125%"><tspan
       sodipodi:role="line"
       x="250.12012"
       y="479.38281"
       style="font-size:12px;text-align:center;text-anchor:middle"
       id="tspan11077-7">Asignar el punto al enlace</tspan><tspan
       sodipodi:role="line"
       x="250.12012"
       y="494.38281"
       style="font-size:12px;text-align:center;text-anchor:middle"
       id="tspan13506">seleccionado previamente</tspan></text>
<text
     xml:space="preserve"
     style="font-size:16px;font-style:normal;font-variant:normal;font-weight:normal;font-stretch:normal;line-height:125%;letter-spacing:0px;word-spacing:0px;fill:#000000;fill-opacity:1;stroke:none;font-family:Serif;-inkscape-font-specification:Serif"
     x="249.97656"
     y="618.87109"
     id="text11073-4-2-6"
     sodipodi:linespacing="125%"><tspan
       sodipodi:role="line"
       x="249.97656"
       y="618.87109"
       style="font-size:12px;text-align:center;text-anchor:middle"
       id="tspan12808-2">¿Fin de la trayectoria?</tspan></text>
<text
     xml:space="preserve"
     style="font-size:16px;font-style:normal;font-variant:normal;font-weight:normal;font-stretch:normal;line-height:125%;letter-spacing:0px;word-spacing:0px;fill:#000000;fill-opacity:1;stroke:none;font-family:Serif;-inkscape-font-specification:Serif"
     x="240.68321"
     y="691.98145"
     id="text11073-1-1-1-3"
     sodipodi:linespacing="125%"><tspan
       sodipodi:role="line"
       x="240.68321"
       y="691.98145"
       style="font-size:12px;text-align:center;text-anchor:middle"
       id="tspan11077-4-7-1-2">Sí</tspan></text>
<text
     xml:space="preserve"
     style="font-size:16px;font-style:normal;font-variant:normal;font-weight:normal;font-stretch:normal;line-height:125%;letter-spacing:0px;word-spacing:0px;fill:#000000;fill-opacity:1;stroke:none;font-family:Serif;-inkscape-font-specification:Serif"
     x="249.92969"
     y="740.16602"
     id="text11073-4-2-6-2"
     sodipodi:linespacing="125%"><tspan
       sodipodi:role="line"
       x="249.92969"
       y="740.16602"
       style="font-size:12px;text-align:center;text-anchor:middle"
       id="tspan12808-2-1">Fin</tspan></text>
<text
     xml:space="preserve"
     style="font-size:16px;font-style:normal;font-variant:normal;font-weight:normal;font-stretch:normal;line-height:125%;letter-spacing:0px;word-spacing:0px;fill:#000000;fill-opacity:1;stroke:none;font-family:Serif;-inkscape-font-specification:Serif"
     x="406.09415"
     y="397.89063"
     id="text11073-1-1-6"
     sodipodi:linespacing="125%"><tspan
       sodipodi:role="line"
       x="406.09415"
       y="397.89063"
       style="font-size:12px;text-align:center;text-anchor:middle"
       id="tspan11077-4-7-8">No</tspan></text>
</svg>